<svg width="205" height="192" viewBox="0 0 205 192" fill="none" xmlns="http://www.w3.org/2000/svg">
<path d="M105.347 19.0536L102.5 10.4898L99.6532 19.0536L80.6909 76.0962L19.2826 76.0962H9.87669L17.5456 81.5422L67.1666 116.78L48.222 173.77L45.3293 182.471L52.8058 177.162L102.5 141.872L152.194 177.162L159.671 182.471L156.778 173.77L137.833 116.78L187.454 81.5422L195.123 76.0962H185.717L124.309 76.0962L105.347 19.0536Z" fill="#D9AA04" stroke="white" stroke-width="6"/>
<path d="M105.347 19.0536L102.5 10.4898L99.6532 19.0536L80.6909 76.0962L19.2826 76.0962H9.87669L17.5456 81.5422L67.1666 116.78L48.222 173.77L45.3293 182.471L52.8058 177.162L102.5 141.872L152.194 177.162L159.671 182.471L156.778 173.77L137.833 116.78L187.454 81.5422L195.123 76.0962H185.717L124.309 76.0962L105.347 19.0536Z" fill="#D9D9D9" fill-opacity="0.01" stroke="white" stroke-width="6"/>
</svg>
